<svg viewBox="0 0 24 24" xmlns="http://www.w3.org/2000/svg" fill="currentColor">
  <!-- Main pin body -->
  <path d="M12 2C6.48 2 2 6.48 2 12c0 4.84 3.94 8.75 8.75 8.75.55 0 1-.45 1-1s-.45-1-1-1C6.58 19.75 3 16.17 3 12c0-4.96 4.04-9 9-9s9 4.04 9 9c0 2.36-.93 4.5-2.44 6.07-.37.41-.35 1.05.06 1.42.41.37 1.05.35 1.42-.06C20.44 17.35 21.5 14.84 21.5 12c0-5.52-4.48-10-10-10z"/>
  <!-- Inner circle -->
  <circle cx="12" cy="12" r="2.75" fill="white" stroke="currentColor" stroke-width="0.5"/>
  <!-- Map ground connection -->
  <path d="M12 14.75c-.55 0-1 .45-1 1v2.5c0 .55.45 1 1 1s1-.45 1-1v-2.5c0-.55-.45-1-1-1z"/>
</svg>