<svg viewBox="0 0 200 200" xmlns="http://www.w3.org/2000/svg">
  <defs>
    <linearGradient id="receptionBg" x1="0" y1="0" x2="1" y2="1">
      <stop offset="0%" stop-color="#f3e8ff" />
      <stop offset="100%" stop-color="#e9d5ff" />
    </linearGradient>
    <linearGradient id="couple" x1="0" y1="0" x2="1" y2="1">
      <stop offset="0%" stop-color="#7c3aed" />
      <stop offset="100%" stop-color="#6d28d9" />
    </linearGradient>
  </defs>
  <rect width="200" height="200" fill="url(#receptionBg)" rx="20"/>
  <circle cx="85" cy="70" r="12" fill="#f9a8d4"/>
  <circle cx="115" cy="70" r="12" fill="#60a5fa"/>
  <path d="M73 82 Q85 75 97 82 Q85 95 73 82 Z" fill="#f9a8d4"/>
  <path d="M103 82 Q115 75 127 82 Q115 95 103 82 Z" fill="#60a5fa"/>
  <path d="M85 82 L85 110 L75 120 L95 120 Z" fill="#f9a8d4"/>
  <path d="M115 82 L115 110 L125 120 L105 120 Z" fill="#60a5fa"/>
  <circle cx="85" cy="65" r="3" fill="#fff"/>
  <circle cx="115" cy="65" r="3" fill="#fff"/>
  <path d="M80 70 Q85 68 90 70" stroke="#f9a8d4" stroke-width="1" fill="none"/>
  <path d="M110 70 Q115 68 120 70" stroke="#60a5fa" stroke-width="1" fill="none"/>
  <text x="100" y="150" text-anchor="middle" font-family="serif" font-size="14" font-weight="bold" fill="#7c3aed">PELLI PUJA</text>
  <text x="100" y="170" text-anchor="middle" font-family="serif" font-size="10" fill="#6d28d9">& RECEPTION</text>
</svg>